<svg xmlns="http://www.w3.org/2000/svg" xmlns:xlink="http://www.w3.org/1999/xlink" viewBox="0 0 347 272.94"><defs><style>.cls-1{fill:#1d1d1b;}.cls-2{fill:#7d4e24;}.cls-3{fill:#432918;}.cls-4{fill:#683c11;}</style></defs><title>asteroid</title><g id="Calque_1" data-name="Calque 1"><image width="253" height="199" transform="scale(1.37)" xlink:href="../Downloads/t%C3%A9l%C3%A9chargement%20(1).png"/></g><g id="Calque_2" data-name="Calque 2"><rect class="cls-1" x="147.86" y="36.89" width="12.51" height="12.51"/><rect class="cls-1" x="160.37" y="36.89" width="12.51" height="12.51"/><rect class="cls-1" x="172.88" y="36.89" width="12.51" height="12.51"/><rect class="cls-1" x="97.82" y="61.91" width="12.51" height="12.51"/><rect class="cls-1" x="110.33" y="61.91" width="12.51" height="12.51"/><rect class="cls-1" x="122.84" y="61.91" width="12.51" height="12.51"/><rect class="cls-1" x="185.39" y="36.89" width="12.51" height="12.51"/><rect class="cls-1" x="197.9" y="36.89" width="12.51" height="12.51"/><rect class="cls-1" x="210.41" y="36.89" width="12.51" height="12.51"/><rect class="cls-1" x="222.93" y="36.89" width="12.51" height="12.51"/><rect class="cls-1" x="147.86" y="212.04" width="12.51" height="12.51"/><rect class="cls-1" x="160.37" y="212.04" width="12.51" height="12.51"/><rect class="cls-1" x="172.88" y="212.04" width="12.51" height="12.51"/><rect class="cls-1" x="185.39" y="212.04" width="12.51" height="12.51"/><rect class="cls-1" x="197.9" y="212.04" width="12.51" height="12.51"/><rect class="cls-1" x="210.41" y="212.04" width="12.51" height="12.51"/><rect class="cls-1" x="222.93" y="212.04" width="12.51" height="12.51"/><rect class="cls-1" x="235.31" y="49.4" width="12.64" height="12.51"/><rect class="cls-1" x="135.35" y="49.4" width="12.51" height="12.51"/><rect class="cls-1" x="247.95" y="49.4" width="12.51" height="12.51"/><rect class="cls-1" x="122.84" y="199.53" width="12.51" height="12.51"/><rect class="cls-1" x="110.33" y="199.53" width="12.51" height="12.51"/><rect class="cls-1" x="97.82" y="187.02" width="12.51" height="12.51"/><rect class="cls-1" x="60.29" y="162" width="12.51" height="12.51"/><rect class="cls-1" x="135.35" y="199.53" width="12.51" height="12.51"/><rect class="cls-1" x="235.44" y="199.53" width="12.51" height="12.51"/><rect class="cls-1" x="247.95" y="199.53" width="12.51" height="12.51"/><rect class="cls-1" x="72.8" y="174.51" width="12.51" height="12.51"/><rect class="cls-1" x="85.31" y="174.51" width="12.51" height="12.51"/><rect class="cls-1" x="487.32" y="316.77" width="12.51" height="12.81" transform="translate(590.24 -425.4) rotate(90)"/><rect class="cls-1" x="487.32" y="329.28" width="12.51" height="12.81" transform="translate(602.76 -412.89) rotate(90)"/><rect class="cls-1" x="499.21" y="341.94" width="12.51" height="12.51" transform="translate(627.16 -412.28) rotate(90)"/><rect class="cls-1" x="499.21" y="354.45" width="12.51" height="12.51" transform="translate(639.67 -399.77) rotate(90)"/><rect class="cls-1" x="499.21" y="366.96" width="12.51" height="12.51" transform="translate(652.18 -387.26) rotate(90)"/><rect class="cls-1" x="511.72" y="379.47" width="12.51" height="12.51" transform="translate(677.2 -387.26) rotate(90)"/><rect class="cls-1" x="511.72" y="391.98" width="12.51" height="12.51" transform="translate(689.71 -374.74) rotate(90)"/><rect class="cls-1" x="511.72" y="404.49" width="12.51" height="12.51" transform="translate(702.22 -362.23) rotate(90)"/><rect class="cls-1" x="274.28" y="379.47" width="12.51" height="12.51" transform="translate(439.76 -149.81) rotate(90)"/><rect class="cls-1" x="274.28" y="391.98" width="12.51" height="12.51" transform="translate(452.27 -137.3) rotate(90)"/><rect class="cls-1" x="286.79" y="354.45" width="12.51" height="12.51" transform="translate(427.24 -187.34) rotate(90)"/><rect class="cls-1" x="299.3" y="341.94" width="12.51" height="12.51" transform="translate(427.24 -212.36) rotate(90)"/><rect class="cls-2" x="286.79" y="379.47" width="12.51" height="12.51" transform="translate(452.27 -162.32) rotate(90)"/><rect class="cls-2" x="286.79" y="391.47" width="12.51" height="12.51" transform="translate(464.27 -150.32) rotate(90)"/><rect class="cls-2" x="286.79" y="391.98" width="12.51" height="12.51" transform="translate(464.78 -149.81) rotate(90)"/><rect class="cls-2" x="286.79" y="404.49" width="12.51" height="12.51" transform="translate(477.29 -137.3) rotate(90)"/><rect class="cls-2" x="336.83" y="391.98" width="12.51" height="12.51" transform="translate(514.82 -199.85) rotate(90)"/><rect class="cls-2" x="336.83" y="404.49" width="12.51" height="12.51" transform="translate(527.33 -187.34) rotate(90)"/><rect class="cls-2" x="411.89" y="417" width="12.51" height="12.51" transform="translate(614.9 -249.89) rotate(90)"/><rect class="cls-2" x="399.38" y="391.98" width="12.51" height="12.51" transform="translate(577.37 -262.4) rotate(90)"/><rect class="cls-2" x="386.87" y="366.96" width="12.51" height="12.51" transform="translate(539.84 -274.91) rotate(90)"/><rect class="cls-2" x="386.87" y="379.47" width="12.51" height="12.51" transform="translate(552.35 -262.4) rotate(90)"/><rect class="cls-2" x="386.87" y="341.94" width="12.51" height="12.51" transform="translate(514.82 -299.94) rotate(90)"/><rect class="cls-2" x="449.36" y="341.87" width="12.51" height="12.64" transform="translate(577.31 -362.43) rotate(90)"/><rect class="cls-2" x="449.36" y="354.38" width="12.51" height="12.64" transform="translate(589.82 -349.91) rotate(90)"/><rect class="cls-2" x="461.94" y="379.47" width="12.51" height="12.51" transform="translate(627.41 -337.47) rotate(90)"/><rect class="cls-2" x="461.94" y="366.96" width="12.51" height="12.51" transform="translate(614.9 -349.98) rotate(90)"/><rect class="cls-2" x="461.89" y="417" width="12.51" height="12.51" transform="translate(664.9 -299.89) rotate(90)"/><rect class="cls-2" x="474.4" y="417" width="12.51" height="12.51" transform="translate(677.41 -312.4) rotate(90)"/><rect class="cls-2" x="474.4" y="429.51" width="12.51" height="12.51" transform="translate(689.93 -299.89) rotate(90)"/><rect class="cls-2" x="461.94" y="429.51" width="12.51" height="12.51" transform="translate(677.46 -287.43) rotate(90)"/><rect class="cls-2" x="461.94" y="442.02" width="12.51" height="12.51" transform="translate(689.97 -274.91) rotate(90)"/><rect class="cls-2" x="461.94" y="341.94" width="12.51" height="12.51" transform="translate(589.88 -375) rotate(90)"/><rect class="cls-2" x="386.87" y="354.45" width="12.51" height="12.51" transform="translate(527.33 -287.43) rotate(90)"/><rect class="cls-2" x="399.38" y="404.49" width="12.51" height="12.51" transform="translate(589.88 -249.89) rotate(90)"/><rect class="cls-2" x="411.89" y="429.51" width="12.51" height="12.51" transform="translate(627.41 -237.38) rotate(90)"/><rect class="cls-2" x="324.32" y="366.96" width="12.51" height="12.51" transform="translate(477.29 -212.36) rotate(90)"/><rect class="cls-2" x="386.87" y="329.43" width="12.51" height="12.51" transform="translate(502.31 -312.45) rotate(90)"/><rect class="cls-2" x="374.36" y="329.43" width="12.51" height="12.51" transform="translate(489.8 -299.94) rotate(90)"/><rect class="cls-2" x="386.87" y="316.91" width="12.51" height="12.51" transform="translate(489.8 -324.96) rotate(90)"/><rect class="cls-2" x="324.32" y="379.47" width="12.51" height="12.51" transform="translate(489.8 -199.85) rotate(90)"/><rect class="cls-2" x="299.3" y="366.96" width="12.51" height="12.51" transform="translate(452.27 -187.34) rotate(90)"/><rect class="cls-2" x="299.3" y="379.47" width="12.51" height="12.51" transform="translate(464.78 -174.83) rotate(90)"/><rect class="cls-3" x="299.3" y="391.98" width="12.51" height="12.51" transform="translate(477.29 -162.32) rotate(90)"/><rect class="cls-3" x="299.3" y="404.49" width="12.51" height="12.51" transform="translate(489.8 -149.81) rotate(90)"/><rect class="cls-3" x="311.81" y="404.49" width="12.51" height="12.51" transform="translate(502.31 -162.32) rotate(90)"/><rect class="cls-3" x="349.34" y="429.51" width="12.51" height="12.51" transform="translate(564.86 -174.83) rotate(90)"/><rect class="cls-3" x="361.85" y="341.94" width="12.51" height="12.51" transform="translate(489.8 -274.91) rotate(90)"/><rect class="cls-3" x="374.36" y="341.94" width="12.51" height="12.51" transform="translate(502.31 -287.43) rotate(90)"/><rect class="cls-3" x="374.36" y="366.96" width="12.51" height="12.51" transform="translate(527.33 -262.4) rotate(90)"/><rect class="cls-3" x="449.36" y="366.89" width="12.51" height="12.64" transform="translate(602.33 -337.4) rotate(90)"/><rect class="cls-3" x="461.94" y="354.45" width="12.51" height="12.51" transform="translate(602.39 -362.49) rotate(90)"/><rect class="cls-3" x="374.36" y="379.47" width="12.51" height="12.51" transform="translate(539.84 -249.89) rotate(90)"/><rect class="cls-3" x="386.87" y="391.98" width="12.51" height="12.51" transform="translate(564.86 -249.89) rotate(90)"/><rect class="cls-3" x="386.87" y="404.49" width="12.51" height="12.51" transform="translate(577.37 -237.38) rotate(90)"/><rect class="cls-3" x="399.38" y="417" width="12.51" height="12.51" transform="translate(602.39 -237.38) rotate(90)"/><rect class="cls-3" x="399.38" y="429.51" width="12.51" height="12.51" transform="translate(614.9 -224.87) rotate(90)"/><rect class="cls-3" x="474.4" y="442.02" width="12.51" height="12.51" transform="translate(702.44 -287.38) rotate(90)"/><rect class="cls-3" x="486.91" y="429.51" width="12.51" height="12.51" transform="translate(702.44 -312.4) rotate(90)"/><rect class="cls-3" x="486.91" y="417" width="12.51" height="12.51" transform="translate(689.93 -324.91) rotate(90)"/><rect class="cls-3" x="499.21" y="404.49" width="12.51" height="12.51" transform="translate(689.71 -349.72) rotate(90)"/><rect class="cls-3" x="486.81" y="404.49" width="12.51" height="12.51" transform="translate(677.31 -337.32) rotate(90)"/><rect class="cls-3" x="386.87" y="304.4" width="12.51" height="12.51" transform="translate(477.29 -337.47) rotate(90)"/><rect class="cls-3" x="374.36" y="304.4" width="12.51" height="12.51" transform="translate(464.78 -324.96) rotate(90)"/><rect class="cls-3" x="361.85" y="442.02" width="12.51" height="12.51" transform="translate(589.88 -174.83) rotate(90)"/><rect class="cls-3" x="374.36" y="454.53" width="12.51" height="12.51" transform="translate(614.9 -174.83) rotate(90)"/><rect class="cls-3" x="386.87" y="454.53" width="12.51" height="12.51" transform="translate(627.41 -187.34) rotate(90)"/><rect class="cls-4" x="311.81" y="341.94" width="12.51" height="12.51" transform="translate(439.76 -224.87) rotate(90)"/><rect class="cls-4" x="311.81" y="354.45" width="12.51" height="12.51" transform="translate(452.27 -212.36) rotate(90)"/><rect class="cls-4" x="311.81" y="366.96" width="12.51" height="12.51" transform="translate(464.78 -199.85) rotate(90)"/><rect class="cls-4" x="324.32" y="329.43" width="12.51" height="12.51" transform="translate(439.76 -249.89) rotate(90)"/><rect class="cls-4" x="324.32" y="341.94" width="12.51" height="12.51" transform="translate(452.27 -237.38) rotate(90)"/><rect class="cls-4" x="324.32" y="354.45" width="12.51" height="12.51" transform="translate(464.78 -224.87) rotate(90)"/><rect class="cls-4" x="336.83" y="329.43" width="12.51" height="12.51" transform="translate(452.27 -262.4) rotate(90)"/><rect class="cls-4" x="336.83" y="341.94" width="12.51" height="12.51" transform="translate(464.78 -249.89) rotate(90)"/><rect class="cls-4" x="336.83" y="354.45" width="12.51" height="12.51" transform="translate(477.29 -237.38) rotate(90)"/><rect class="cls-4" x="336.83" y="366.96" width="12.51" height="12.51" transform="translate(489.8 -224.87) rotate(90)"/><rect class="cls-4" x="336.83" y="379.47" width="12.51" height="12.51" transform="translate(502.31 -212.36) rotate(90)"/><rect class="cls-4" x="311.81" y="379.47" width="12.51" height="12.51" transform="translate(477.29 -187.34) rotate(90)"/><rect class="cls-4" x="311.81" y="391.98" width="12.51" height="12.51" transform="translate(489.8 -174.83) rotate(90)"/><rect class="cls-4" x="324.32" y="391.98" width="12.51" height="12.51" transform="translate(502.31 -187.34) rotate(90)"/><rect class="cls-4" x="324.32" y="404.49" width="12.51" height="12.51" transform="translate(514.82 -174.83) rotate(90)"/><rect class="cls-4" x="324.32" y="417" width="12.51" height="12.51" transform="translate(527.33 -162.32) rotate(90)"/><rect class="cls-4" x="336.83" y="417" width="12.51" height="12.51" transform="translate(539.84 -174.83) rotate(90)"/><rect class="cls-4" x="349.34" y="329.43" width="12.51" height="12.51" transform="translate(464.78 -274.91) rotate(90)"/><rect class="cls-4" x="349.34" y="341.94" width="12.51" height="12.51" transform="translate(477.29 -262.4) rotate(90)"/><rect class="cls-4" x="349.34" y="354.45" width="12.51" height="12.51" transform="translate(489.8 -249.89) rotate(90)"/><rect class="cls-4" x="349.34" y="366.96" width="12.51" height="12.51" transform="translate(502.31 -237.38) rotate(90)"/><rect class="cls-4" x="349.34" y="379.47" width="12.51" height="12.51" transform="translate(514.82 -224.87) rotate(90)"/><rect class="cls-4" x="349.34" y="391.98" width="12.51" height="12.51" transform="translate(527.33 -212.36) rotate(90)"/><rect class="cls-4" x="349.34" y="404.49" width="12.51" height="12.51" transform="translate(539.84 -199.85) rotate(90)"/><rect class="cls-4" x="349.34" y="417" width="12.51" height="12.51" transform="translate(552.35 -187.34) rotate(90)"/><rect class="cls-4" x="361.85" y="404.49" width="12.51" height="12.51" transform="translate(552.35 -212.36) rotate(90)"/><rect class="cls-4" x="361.85" y="391.98" width="12.51" height="12.51" transform="translate(539.84 -224.87) rotate(90)"/><rect class="cls-4" x="361.85" y="379.47" width="12.51" height="12.51" transform="translate(527.33 -237.38) rotate(90)"/><rect class="cls-4" x="361.85" y="366.96" width="12.51" height="12.51" transform="translate(514.82 -249.89) rotate(90)"/><rect class="cls-4" x="361.85" y="354.45" width="12.51" height="12.51" transform="translate(502.31 -262.4) rotate(90)"/><rect class="cls-4" x="374.36" y="354.45" width="12.51" height="12.51" transform="translate(514.82 -274.91) rotate(90)"/><rect class="cls-4" x="361.85" y="329.43" width="12.51" height="12.51" transform="translate(477.29 -287.43) rotate(90)"/><rect class="cls-4" x="374.36" y="316.91" width="12.51" height="12.51" transform="translate(477.29 -312.45) rotate(90)"/><rect class="cls-4" x="361.85" y="316.91" width="12.51" height="12.51" transform="translate(464.78 -299.94) rotate(90)"/><rect class="cls-4" x="361.85" y="417" width="12.51" height="12.51" transform="translate(564.86 -199.85) rotate(90)"/><rect class="cls-4" x="361.85" y="429.51" width="12.51" height="12.51" transform="translate(577.37 -187.34) rotate(90)"/><rect class="cls-4" x="374.36" y="404.49" width="12.51" height="12.51" transform="translate(564.86 -224.87) rotate(90)"/><rect class="cls-4" x="374.36" y="391.98" width="12.51" height="12.51" transform="translate(552.35 -237.38) rotate(90)"/><rect class="cls-4" x="374.36" y="417" width="12.51" height="12.51" transform="translate(577.37 -212.36) rotate(90)"/><rect class="cls-4" x="374.36" y="429.51" width="12.51" height="12.51" transform="translate(589.88 -199.85) rotate(90)"/><rect class="cls-4" x="374.36" y="442.02" width="12.51" height="12.51" transform="translate(602.39 -187.34) rotate(90)"/><rect class="cls-4" x="386.87" y="417" width="12.51" height="12.51" transform="translate(589.88 -224.87) rotate(90)"/><rect class="cls-4" x="386.87" y="429.51" width="12.51" height="12.51" transform="translate(602.39 -212.36) rotate(90)"/><rect class="cls-4" x="386.87" y="442.02" width="12.51" height="12.51" transform="translate(614.9 -199.85) rotate(90)"/><rect class="cls-4" x="399.38" y="442.02" width="12.51" height="12.51" transform="translate(627.41 -212.36) rotate(90)"/><rect class="cls-4" x="399.38" y="454.53" width="12.51" height="12.51" transform="translate(639.93 -199.85) rotate(90)"/><rect class="cls-4" x="411.89" y="454.53" width="12.51" height="12.51" transform="translate(652.44 -212.36) rotate(90)"/><rect class="cls-4" x="424.4" y="454.53" width="12.51" height="12.51" transform="translate(664.95 -224.87) rotate(90)"/><rect class="cls-4" x="436.91" y="454.53" width="12.51" height="12.51" transform="translate(677.46 -237.38) rotate(90)"/><rect class="cls-4" x="449.43" y="454.53" width="12.51" height="12.51" transform="translate(689.97 -249.89) rotate(90)"/><rect class="cls-4" x="411.89" y="442.02" width="12.51" height="12.51" transform="translate(639.93 -224.87) rotate(90)"/><rect class="cls-4" x="424.4" y="442.02" width="12.51" height="12.51" transform="translate(652.44 -237.38) rotate(90)"/><rect class="cls-4" x="436.91" y="442.02" width="12.51" height="12.51" transform="translate(664.95 -249.89) rotate(90)"/><rect class="cls-4" x="449.43" y="442.02" width="12.51" height="12.51" transform="translate(677.46 -262.4) rotate(90)"/><rect class="cls-4" x="436.91" y="404.49" width="12.51" height="12.51" transform="translate(659.84 566.49) rotate(180)"/><rect class="cls-4" x="436.91" y="417" width="12.51" height="12.51" transform="translate(659.84 591.51) rotate(180)"/><rect class="cls-4" x="436.91" y="429.51" width="12.51" height="12.51" transform="translate(659.84 616.53) rotate(180)"/><rect class="cls-4" x="424.4" y="404.49" width="12.51" height="12.51" transform="translate(634.82 566.49) rotate(180)"/><rect class="cls-4" x="424.4" y="417" width="12.51" height="12.51" transform="translate(634.82 591.51) rotate(180)"/><rect class="cls-4" x="424.4" y="429.51" width="12.51" height="12.51" transform="translate(634.82 616.53) rotate(180)"/><rect class="cls-4" x="449.43" y="404.49" width="12.51" height="12.51" transform="translate(684.86 566.49) rotate(180)"/><rect class="cls-4" x="449.43" y="417" width="12.51" height="12.51" transform="translate(684.86 591.51) rotate(180)"/><rect class="cls-4" x="449.43" y="429.51" width="12.51" height="12.51" transform="translate(684.86 616.53) rotate(180)"/><rect class="cls-4" x="411.89" y="391.98" width="12.51" height="12.51" transform="translate(589.88 -274.91) rotate(90)"/><rect class="cls-4" x="411.89" y="404.49" width="12.51" height="12.51" transform="translate(602.39 -262.4) rotate(90)"/><rect class="cls-4" x="424.4" y="391.98" width="12.51" height="12.51" transform="translate(602.39 -287.43) rotate(90)"/><rect class="cls-4" x="436.79" y="391.98" width="12.51" height="12.51" transform="translate(614.78 -299.81) rotate(90)"/><rect class="cls-4" x="411.89" y="379.47" width="12.51" height="12.51" transform="translate(577.37 -287.43) rotate(90)"/><rect class="cls-4" x="424.4" y="379.47" width="12.51" height="12.51" transform="translate(589.88 -299.94) rotate(90)"/><rect class="cls-4" x="436.91" y="379.47" width="12.51" height="12.51" transform="translate(602.39 -312.45) rotate(90)"/><rect class="cls-4" x="424.28" y="341.94" width="12.51" height="12.51" transform="translate(634.56 441.38) rotate(180)"/><rect class="cls-4" x="424.28" y="354.45" width="12.51" height="12.51" transform="translate(634.56 466.4) rotate(180)"/><rect class="cls-4" x="424.28" y="366.96" width="12.51" height="12.51" transform="translate(634.56 491.43) rotate(180)"/><rect class="cls-4" x="411.77" y="341.94" width="12.51" height="12.51" transform="translate(609.54 441.38) rotate(180)"/><rect class="cls-4" x="411.77" y="354.45" width="12.51" height="12.51" transform="translate(609.54 466.4) rotate(180)"/><rect class="cls-4" x="411.77" y="366.96" width="12.51" height="12.51" transform="translate(609.54 491.43) rotate(180)"/><rect class="cls-4" x="399.38" y="379.47" width="12.51" height="12.51" transform="translate(564.86 -274.91) rotate(90)"/><rect class="cls-4" x="399.32" y="341.94" width="12.51" height="12.51" transform="translate(584.65 441.38) rotate(180)"/><rect class="cls-4" x="399.32" y="354.45" width="12.51" height="12.51" transform="translate(584.65 466.4) rotate(180)"/><rect class="cls-4" x="399.32" y="366.96" width="12.51" height="12.51" transform="translate(584.65 491.43) rotate(180)"/><rect class="cls-4" x="436.79" y="341.94" width="12.51" height="12.51" transform="translate(659.59 441.38) rotate(180)"/><rect class="cls-4" x="436.79" y="354.45" width="12.51" height="12.51" transform="translate(659.59 466.4) rotate(180)"/><rect class="cls-4" x="436.79" y="366.96" width="12.51" height="12.51" transform="translate(659.59 491.43) rotate(180)"/><rect class="cls-4" x="424.28" y="304.4" width="12.51" height="12.51" transform="translate(634.56 366.32) rotate(180)"/><rect class="cls-4" x="424.28" y="316.91" width="12.51" height="12.51" transform="translate(634.56 391.34) rotate(180)"/><rect class="cls-4" x="424.28" y="329.43" width="12.51" height="12.51" transform="translate(634.56 416.36) rotate(180)"/><rect class="cls-4" x="411.86" y="304.4" width="12.51" height="12.51" transform="translate(609.73 366.32) rotate(180)"/><rect class="cls-4" x="411.86" y="316.91" width="12.51" height="12.51" transform="translate(609.73 391.34) rotate(180)"/><rect class="cls-4" x="411.77" y="329.43" width="12.51" height="12.51" transform="translate(609.54 416.36) rotate(180)"/><rect class="cls-4" x="399.37" y="304.4" width="12.51" height="12.51" transform="translate(584.74 366.32) rotate(180)"/><rect class="cls-4" x="399.37" y="316.91" width="12.51" height="12.51" transform="translate(584.74 391.34) rotate(180)"/><rect class="cls-4" x="399.32" y="329.43" width="12.51" height="12.51" transform="translate(584.65 416.36) rotate(180)"/><rect class="cls-4" x="436.79" y="304.4" width="12.51" height="12.51" transform="translate(659.59 366.32) rotate(180)"/><rect class="cls-4" x="436.79" y="316.91" width="12.51" height="12.51" transform="translate(659.59 391.34) rotate(180)"/><rect class="cls-4" x="436.79" y="329.43" width="12.51" height="12.51" transform="translate(659.59 416.36) rotate(180)"/><rect class="cls-4" x="449.3" y="304.4" width="12.51" height="12.51" transform="translate(684.61 366.32) rotate(180)"/><rect class="cls-4" x="449.3" y="316.91" width="12.51" height="12.51" transform="translate(684.61 391.34) rotate(180)"/><rect class="cls-4" x="449.3" y="329.43" width="12.51" height="12.51" transform="translate(684.61 416.36) rotate(180)"/><rect class="cls-4" x="461.81" y="316.91" width="12.51" height="12.51" transform="translate(709.63 391.34) rotate(180)"/><rect class="cls-4" x="461.81" y="329.43" width="12.51" height="12.51" transform="translate(709.63 416.36) rotate(180)"/><rect class="cls-4" x="474.32" y="316.91" width="12.85" height="12.51" transform="translate(734.99 391.34) rotate(180)"/><rect class="cls-4" x="474.32" y="329.43" width="12.85" height="12.51" transform="translate(734.99 416.36) rotate(180)"/><rect class="cls-4" x="449.34" y="379.47" width="12.68" height="12.51" transform="translate(684.86 516.45) rotate(180)"/><rect class="cls-4" x="449.26" y="391.98" width="12.68" height="12.51" transform="translate(684.69 541.47) rotate(180)"/><rect class="cls-4" x="461.89" y="404.49" width="12.51" height="12.51" transform="translate(709.8 566.49) rotate(180)"/><rect class="cls-4" x="461.72" y="391.98" width="12.68" height="12.51" transform="translate(709.63 541.47) rotate(180)"/><rect class="cls-4" x="474.32" y="404.49" width="12.68" height="12.51" transform="translate(734.82 566.49) rotate(180)"/><rect class="cls-4" x="474.32" y="391.98" width="12.68" height="12.51" transform="translate(734.82 541.47) rotate(180)"/><rect class="cls-4" x="487" y="391.98" width="12.68" height="12.51" transform="translate(760.18 541.47) rotate(180)"/><rect class="cls-4" x="486.36" y="379.47" width="12.68" height="12.51" transform="translate(758.9 516.45) rotate(180)"/><rect class="cls-4" x="474.45" y="379.47" width="12.68" height="12.51" transform="translate(735.07 516.45) rotate(180)"/><rect class="cls-4" x="474.45" y="366.96" width="12.68" height="12.51" transform="translate(735.07 491.43) rotate(180)"/><rect class="cls-4" x="486.53" y="366.96" width="12.68" height="12.51" transform="translate(759.24 491.43) rotate(180)"/><rect class="cls-4" x="486.53" y="354.45" width="12.68" height="12.51" transform="translate(759.24 466.4) rotate(180)"/><rect class="cls-4" x="486.53" y="341.94" width="12.68" height="12.51" transform="translate(759.24 441.38) rotate(180)"/><rect class="cls-4" x="474.45" y="354.45" width="12.68" height="12.51" transform="translate(735.07 466.4) rotate(180)"/><rect class="cls-4" x="474.4" y="341.94" width="12.68" height="12.51" transform="translate(734.99 441.38) rotate(180)"/><rect class="cls-4" x="499.04" y="391.98" width="12.68" height="12.51" transform="translate(784.27 541.47) rotate(180)"/><rect class="cls-4" x="499.04" y="379.47" width="12.68" height="12.51" transform="translate(784.27 516.45) rotate(180)"/><rect class="cls-2" x="299.3" y="354.45" width="12.51" height="12.51" transform="translate(439.76 -199.85) rotate(90)"/><rect class="cls-2" x="299.3" y="417" width="12.51" height="12.51" transform="translate(502.31 -137.3) rotate(90)"/><rect class="cls-2" x="311.81" y="417" width="12.51" height="12.51" transform="translate(514.82 -149.81) rotate(90)"/><rect class="cls-2" x="324.32" y="429.51" width="12.51" height="12.51" transform="translate(539.84 -149.81) rotate(90)"/><rect class="cls-2" x="336.83" y="429.51" width="12.51" height="12.51" transform="translate(552.35 -162.32) rotate(90)"/><rect class="cls-2" x="336.83" y="442.02" width="12.51" height="12.51" transform="translate(564.86 -149.81) rotate(90)"/><rect class="cls-2" x="349.34" y="442.02" width="12.51" height="12.51" transform="translate(577.37 -162.32) rotate(90)"/><rect class="cls-1" x="311.81" y="329.43" width="12.51" height="12.51" transform="translate(427.24 -237.38) rotate(90)"/><rect class="cls-1" x="286.79" y="366.96" width="12.51" height="12.51" transform="translate(439.76 -174.83) rotate(90)"/><rect class="cls-1" x="274.28" y="404.49" width="12.51" height="12.51" transform="translate(464.78 -124.79) rotate(90)"/><rect class="cls-1" x="499.32" y="417" width="12.51" height="12.51" transform="translate(702.34 -337.32) rotate(90)"/><rect class="cls-1" x="499.32" y="429.51" width="12.51" height="12.51" transform="translate(714.85 -324.81) rotate(90)"/><rect class="cls-1" x="486.91" y="442.02" width="12.51" height="12.51" transform="translate(714.95 -299.89) rotate(90)"/></g></svg>